<svg width="130" height="131" viewBox="0 0 130 131" fill="none" xmlns="http://www.w3.org/2000/svg">
<path d="M64.9927 0C60.4469 0 56.6324 3.18692 55.6067 7.42871H18.4478V2.69662C18.4428 1.45884 17.4352 0.459197 16.1974 0.464218H2.23242C2.16137 0.461216 2.08932 0.461216 2.01828 0.464218C0.871541 0.579291 -0.000998176 1.54492 8.57029e-07 2.69662V16.6616C0.00500396 17.8934 1.00165 18.89 2.23241 18.895H16.1973C17.4361 18.899 18.4428 17.8994 18.4478 16.6616V11.9115H45.309C30.0532 19.2301 19.5544 34.783 19.5544 52.8617V56.6001C15.3088 57.6287 12.1078 61.4531 12.1078 65.9989C12.1078 71.3223 16.4815 75.678 21.8048 75.678C27.1281 75.678 31.4839 71.3223 31.4839 65.9989C31.4839 61.4469 28.2888 57.6176 24.0372 56.595V52.8606C24.0372 33.8375 36.8302 17.979 54.3003 13.304L54.3013 13.305C54.8946 13.151 55.399 12.7597 55.6971 12.2234C56.8269 16.314 60.5532 19.3588 64.991 19.3588C69.4328 19.3588 73.173 16.3079 74.303 12.2103C74.5931 12.7466 75.0895 13.1419 75.6778 13.305C93.1489 17.981 105.959 33.84 105.959 52.8616V56.5959C101.708 57.6185 98.5121 61.4479 98.5121 65.9999C98.5121 71.3232 102.868 75.679 108.191 75.679C113.515 75.679 117.888 71.3232 117.888 65.9999C117.888 61.454 114.687 57.6295 110.442 56.601V52.8626C110.442 34.7852 99.9338 19.231 84.6743 11.9125H111.548V16.6625L111.547 16.6615C111.552 17.8993 112.56 18.8989 113.798 18.8949H127.75C128.987 18.8989 129.995 17.8993 130 16.6615V2.69654C129.995 1.45877 128.987 0.45912 127.75 0.46414H113.798C113.722 0.460138 113.646 0.460138 113.57 0.46414H113.566C112.419 0.579214 111.546 1.54484 111.547 2.69654V7.42863L74.3884 7.42963C73.3597 3.18707 69.5343 0.000923925 64.9895 0.000923925L64.9927 0ZM64.9927 4.46593C67.8935 4.46593 70.202 6.77939 70.202 9.68012C70.202 12.5809 67.8926 14.8764 64.9927 14.8764C62.092 14.8764 59.7965 12.5809 59.7965 9.68012C59.7965 6.77934 62.0919 4.46593 64.9927 4.46593ZM4.48464 4.94724H13.9667V9.47414C13.9567 9.59922 13.9567 9.7253 13.9667 9.85039V14.4124H4.48464V4.94724ZM116.038 4.94724H125.516V14.4122H116.038V9.82815C116.043 9.7351 116.043 9.64104 116.038 9.54796V4.94724ZM65.0286 27.9529C64.9516 27.9509 64.8735 27.9539 64.7964 27.9609H64.7924C64.016 28.033 63.3325 28.5043 62.9883 29.2037L36.5165 82.1653H36.5175C36.1633 82.8727 36.2083 83.7153 36.6356 84.3807L48.0658 102.036H45.0889C44.4865 102.023 43.9032 102.253 43.4719 102.675C43.0406 103.097 42.7975 103.674 42.7975 104.277C42.7975 104.881 43.0406 105.459 43.4719 105.88C43.9032 106.303 44.4865 106.533 45.0889 106.519H49.8699V127.747C49.8659 128.346 50.1021 128.92 50.5244 129.343C50.9476 129.766 51.522 130.004 52.1194 130.002H77.8816C78.48 130.004 79.0543 129.766 79.4776 129.343C79.8999 128.92 80.1361 128.346 80.1321 127.747V106.52H84.912L84.913 106.519C85.5154 106.533 86.0988 106.303 86.5301 105.88C86.9613 105.459 87.2045 104.881 87.2045 104.277C87.2045 103.674 86.9613 103.097 86.5301 102.675C86.0988 102.253 85.5154 102.023 84.913 102.036H81.9403L93.3705 84.3807C93.7968 83.7143 93.8398 82.8718 93.4846 82.1653L67.0128 29.2037C66.6395 28.4463 65.873 27.963 65.0295 27.952L65.0286 27.9529ZM62.7612 39.6854V69.7256C62.7882 70.9443 63.7838 71.918 65.0026 71.918C66.2213 71.918 67.217 70.9443 67.244 69.7256V39.7213L88.9007 83.0127L76.608 102.039H53.3923L41.0824 83.0127L62.7612 39.6854ZM21.8059 60.7909C24.7067 60.7909 27.0022 63.1003 27.0022 66.0002C27.0022 68.901 24.7067 71.1965 21.8059 71.1965C18.9051 71.1965 16.5966 68.901 16.5966 66.0002C16.5966 63.0994 18.9061 60.7909 21.8059 60.7909ZM108.192 60.7909C111.092 60.7909 113.406 63.1003 113.406 66.0002C113.406 68.901 111.092 71.1965 108.192 71.1965C105.291 71.1965 102.995 68.901 102.995 66.0002C102.995 63.0994 105.291 60.7909 108.192 60.7909ZM54.3539 106.521H75.6474V125.516H54.3539V106.521Z" fill="#333333"/>
</svg>
