<svg width="130" height="130" viewBox="0 0 130 130" fill="none" xmlns="http://www.w3.org/2000/svg">
<path d="M38.9097 33.0855C37.7103 31.8862 35.7667 31.8862 34.5685 33.0855L4.06294 63.5883C3.48682 64.1634 3.16235 64.9451 3.16235 65.7589C3.16235 66.5728 3.48575 67.3544 4.06184 67.9295L34.5674 98.4323C35.1681 99.033 35.952 99.3318 36.738 99.3318C37.524 99.3318 38.3089 99.032 38.9086 98.4323C40.1079 97.233 40.1079 95.2894 38.9086 94.0911L10.5742 65.7567L38.9086 37.4223C40.1068 36.224 40.1068 34.2805 38.9086 33.0811L38.9097 33.0855ZM126.101 63.5883L95.595 33.0855C94.3956 31.8862 92.452 31.8862 91.2538 33.0855C90.0544 34.2849 90.0544 36.2285 91.2538 37.4267L119.588 65.7611L91.2538 94.0955C90.0544 95.2949 90.0544 97.2385 91.2538 98.4367C91.8545 99.0374 92.6384 99.3362 93.4244 99.3362C94.2103 99.3362 94.9953 99.0363 95.595 98.4367L126.101 67.9339C126.677 67.3578 127 66.5771 127 65.7633C127.001 64.9495 126.677 64.1678 126.102 63.5927L126.101 63.5883ZM85.3588 21.5198C83.8211 20.8163 81.9952 21.4877 81.2896 23.0318L43.2947 105.93C42.589 107.471 43.2636 109.292 44.8067 109.999C45.2211 110.189 45.6559 110.278 46.0842 110.278C47.2482 110.278 48.3598 109.613 48.8771 108.487L86.872 25.589C87.5777 24.0481 86.902 22.2265 85.3589 21.5198L85.3588 21.5198Z" fill="#333333"/>
</svg>
