<svg width="130" height="130" viewBox="0 0 130 130" fill="none" xmlns="http://www.w3.org/2000/svg">
<path d="M98.0596 40.366C103.69 41.288 108.835 44.1109 112.639 48.3632C116.443 52.6156 118.676 58.0426 118.968 63.7406L123.574 66.8106L128.059 63.8224C127.775 55.7795 124.652 48.096 119.244 42.1357C113.836 36.1754 106.492 32.3222 98.5134 31.2586L100.485 34.2108V34.2118C100.994 34.974 100.994 35.9692 100.485 36.7323L98.0596 40.366Z" fill="#333333"/>
<path d="M39.4589 98.7429C48.7753 97.5016 57.1727 92.4879 62.6863 84.8767C66.6118 79.4135 68.8186 72.9037 69.025 66.1792L64.5285 63.1776L59.9225 66.2475C59.6307 71.9446 57.3961 77.3708 53.5923 81.6223C49.7885 85.8738 44.6438 88.6956 39.0142 89.6185L41.4369 93.2522V93.2512C41.9463 94.0144 41.9463 95.0096 41.4369 95.7727L39.4589 98.7429Z" fill="#333333"/>
<path d="M10.3776 69.0046L6.74389 71.4273C5.98162 71.9367 4.98647 71.9367 4.22336 71.4273L1.27118 69.456C2.33475 77.4332 6.18693 84.7756 12.1463 90.1838C18.1066 95.591 25.7881 98.7143 33.83 98.9992L36.8231 94.5158L33.7532 89.9098V89.9108C28.0551 89.619 22.6289 87.3854 18.3757 83.5825C14.1232 79.7788 11.3005 74.634 10.3776 69.0044V69.0046Z" fill="#333333"/>
<path d="M90.0374 89.6233C82.2427 88.3468 75.5077 83.4644 71.8703 76.4518C70.8096 79.8517 69.2812 83.0871 67.3281 86.0648C72.8275 93.0098 80.8047 97.552 89.5841 98.7392L87.6081 95.787C87.0986 95.0238 87.0986 94.0296 87.6081 93.2665L90.0374 89.6233Z" fill="#333333"/>
<path d="M122.311 71.428L118.677 69.0072C117.754 74.6368 114.931 79.7806 110.679 83.5844C106.426 87.3872 101 89.6199 95.3028 89.9116L92.2348 94.5166L95.223 99C103.267 98.7168 110.95 95.5936 116.911 90.1863C122.872 84.7781 126.726 77.435 127.789 69.4569L124.836 71.4281C124.073 71.9376 123.079 71.9376 122.316 71.4281L122.311 71.428Z" fill="#333333"/>
<path d="M57.1798 53.5344C58.2396 50.1355 59.769 46.9011 61.7221 43.9243C55.5089 36.0878 46.1762 31.365 36.1834 31L33.1904 35.4719L36.2603 40.0779L36.2613 40.077C45.1309 40.5256 53.0959 45.6495 57.181 53.5347L57.1798 53.5344Z" fill="#333333"/>
<path d="M10.088 63.7392C10.3798 58.0412 12.6134 52.6149 16.4182 48.3627C20.222 44.1102 25.3667 41.2885 30.9963 40.3665L28.5736 36.7328C28.0642 35.9696 28.0642 34.9745 28.5736 34.2123L30.5449 31.2601V31.2592C22.5677 32.3227 15.2234 36.1749 9.81541 42.1352C4.40718 48.0955 1.2842 55.7781 1 63.8209L5.4824 66.8111L10.088 63.7392Z" fill="#333333"/>
<path d="M63.2676 58.5638C64.0308 58.0553 65.025 58.0553 65.7881 58.5638L69.4218 60.9865V60.9875C70.3438 55.3578 73.1658 50.2131 77.418 46.4093C81.6695 42.6055 87.0947 40.3711 92.7928 40.0782L95.8676 35.4731L92.8859 31.0012C82.3454 31.37 72.564 36.5766 66.374 45.1156C63.0863 49.6749 60.9896 54.9833 60.274 60.5577L63.2676 58.5638Z" fill="#333333"/>
</svg>
