<svg width="205" height="43" viewBox="0 0 205 43" fill="none" xmlns="http://www.w3.org/2000/svg">
<path d="M0.207031 32.0273C0.300781 31.957 0.453125 31.8398 0.664062 31.6758C0.851562 31.5117 1.08594 31.207 1.36719 30.7617C1.625 30.3164 1.91797 29.6719 2.24609 28.8281C2.57422 27.9844 2.91406 26.8359 3.26562 25.3828C3.45312 24.6094 3.69922 23.625 4.00391 22.4297C4.30859 21.2344 4.63672 19.957 4.98828 18.5977C5.36328 17.2383 5.73828 15.8438 6.11328 14.4141C6.48828 12.9609 6.85156 11.5898 7.20312 10.3008C7.55469 8.98828 7.87109 7.80469 8.15234 6.75C8.43359 5.69531 8.65625 4.875 8.82031 4.28906C8.375 4.57031 7.94141 4.88672 7.51953 5.23828C7.14453 5.54297 6.74609 5.89453 6.32422 6.29297C5.90234 6.66797 5.49219 7.06641 5.09375 7.48828C4.78906 7.23047 4.55469 6.94922 4.39062 6.64453C4.29688 6.50391 4.21484 6.35156 4.14453 6.1875C4.00391 5.83594 3.93359 5.47266 3.93359 5.09766C3.93359 4.72266 4.22656 4.33594 4.8125 3.9375C5.11719 3.72656 5.57422 3.42188 6.18359 3.02344C6.81641 2.625 7.58984 2.23828 8.50391 1.86328C9.41797 1.46484 10.4844 1.125 11.7031 0.84375C12.9219 0.5625 14.2695 0.421875 15.7461 0.421875C17.2227 0.421875 18.4062 0.714844 19.2969 1.30078C20.2109 1.88672 20.9023 2.60156 21.3711 3.44531C21.8633 4.28906 22.1797 5.17969 22.3203 6.11719C22.4609 7.05469 22.4961 7.875 22.4258 8.57812C22.2852 9.89062 21.8633 11.2617 21.1602 12.6914C20.457 14.1211 19.4844 15.4453 18.2422 16.6641C17 17.8594 15.4883 18.8789 13.707 19.7227C11.9258 20.5664 9.88672 21.0469 7.58984 21.1641C7.40234 22.0547 7.21484 22.9688 7.02734 23.9062C6.83984 24.8438 6.64062 25.7695 6.42969 26.6836C6.21875 27.5742 5.99609 28.4062 5.76172 29.1797C5.55078 29.9766 5.32812 30.6562 5.09375 31.2188C4.85938 31.8281 4.55469 32.3086 4.17969 32.6602C3.80469 33.0352 3.20703 33.2227 2.38672 33.2227C1.96484 33.2227 1.57812 33.1172 1.22656 32.9062C0.851562 32.6953 0.511719 32.4023 0.207031 32.0273ZM8.53906 15.9961C8.46875 16.3711 8.375 16.8633 8.25781 17.4727C8.16406 18.0586 8.04688 18.7266 7.90625 19.4766C8.53906 19.3828 9.24219 19.2188 10.0156 18.9844C10.7891 18.7266 11.5625 18.3867 12.3359 17.9648C13.1094 17.543 13.8594 17.0391 14.5859 16.4531C15.3359 15.8438 16.0156 15.1523 16.625 14.3789C17.2344 13.582 17.7383 12.6914 18.1367 11.707C18.5586 10.6992 18.8281 9.58594 18.9453 8.36719C19.0625 7.19531 18.9922 6.22266 18.7344 5.44922C18.5 4.65234 18.1484 4.01953 17.6797 3.55078C17.2109 3.05859 16.6719 2.71875 16.0625 2.53125C15.4531 2.32031 14.8438 2.21484 14.2344 2.21484C13.6484 2.21484 13.0742 2.29688 12.5117 2.46094C11.9492 2.625 11.3867 2.83594 10.8242 3.09375C10.8945 3.11719 10.9766 3.17578 11.0703 3.26953C11.2109 3.41016 11.3164 3.60937 11.3867 3.86719C10.8242 6.14062 10.3555 8.03906 9.98047 9.5625C9.62891 11.0859 9.34766 12.3281 9.13672 13.2891C8.87891 14.4141 8.67969 15.3164 8.53906 15.9961ZM20.5625 26.8242C20.3984 27.082 20.2227 27.2461 20.0352 27.3164C19.8242 27.4102 19.6484 27.4219 19.5078 27.3516C19.3438 27.3047 19.2383 27.1875 19.1914 27C19.1445 26.8125 19.1914 26.5781 19.332 26.2969C19.4023 26.1562 19.5664 25.8398 19.8242 25.3477C20.0586 24.8555 20.3516 24.2695 20.7031 23.5898C21.0312 22.8867 21.3945 22.1367 21.793 21.3398C22.1914 20.5195 22.5664 19.7461 22.918 19.0195C23.293 18.293 23.6328 17.6484 23.9375 17.0859C24.2422 16.5 24.4648 16.0781 24.6055 15.8203C24.3477 15.5859 24.1719 15.4219 24.0781 15.3281C23.9844 15.2109 23.9141 14.9766 23.8672 14.625C23.8203 14.3203 23.8906 13.9219 24.0781 13.4297C24.2656 12.9375 24.5117 12.4688 24.8164 12.0234C25.1211 11.5547 25.4609 11.1562 25.8359 10.8281C26.2109 10.5 26.5742 10.3359 26.9258 10.3359C27.582 10.3359 28.0391 10.5469 28.2969 10.9688C28.5781 11.3906 28.7422 11.8242 28.7891 12.2695C28.8359 12.5742 28.8125 12.9609 28.7188 13.4297C28.625 13.8984 28.4492 14.3203 28.1914 14.6953C28.2617 14.7422 28.3555 14.8008 28.4727 14.8711C28.5898 14.918 28.7773 14.9414 29.0352 14.9414C29.4102 14.9414 29.668 14.918 29.8086 14.8711C29.9727 14.8242 30.2188 14.8008 30.5469 14.8008C30.9453 14.8008 31.2734 14.9062 31.5312 15.1172C31.7891 15.3047 32 15.5508 32.1641 15.8555C32.3281 16.1367 32.4453 16.4531 32.5156 16.8047C32.6094 17.1328 32.668 17.4375 32.6914 17.7188C32.7617 18.3047 32.6094 18.9141 32.2344 19.5469C31.8594 20.1797 31.4023 20.8711 30.8633 21.6211C30.5352 22.0898 30.207 22.6172 29.8789 23.2031C29.5508 23.7891 29.4102 24.3164 29.457 24.7852C29.5039 25.0898 29.5859 25.3359 29.7031 25.5234C29.8203 25.7109 30.1484 25.8047 30.6875 25.8047C31.0859 25.8047 31.5195 25.6641 31.9883 25.3828C32.4805 25.0781 32.9727 24.7031 33.4648 24.2578C33.9805 23.7891 34.4844 23.2852 34.9766 22.7461C35.4688 22.1836 35.9258 21.6445 36.3477 21.1289C36.7695 20.5898 37.1211 20.1094 37.4023 19.6875C37.707 19.2656 37.9297 18.9609 38.0703 18.7734C38.1875 18.5859 38.3398 18.457 38.5273 18.3867C38.7148 18.3164 38.8789 18.3164 39.0195 18.3867C39.1602 18.457 39.2422 18.5977 39.2656 18.8086C39.3125 19.0195 39.2305 19.3008 39.0195 19.6523C38.8789 19.8867 38.6328 20.2617 38.2812 20.7773C37.9531 21.293 37.543 21.8672 37.0508 22.5C36.582 23.1328 36.0547 23.7891 35.4688 24.4688C34.8828 25.125 34.2617 25.7344 33.6055 26.2969C32.9727 26.8359 32.3281 27.2812 31.6719 27.6328C31.0391 27.9844 30.4297 28.1602 29.8438 28.1602C29.2344 28.1602 28.7305 28.043 28.332 27.8086C27.9336 27.5742 27.6055 27.293 27.3477 26.9648C27.1133 26.6133 26.9375 26.2383 26.8203 25.8398C26.7266 25.418 26.6914 25.0312 26.7148 24.6797C26.7383 24.3984 26.8086 24.1055 26.9258 23.8008C27.0664 23.4727 27.2188 23.1445 27.3828 22.8164C27.5703 22.4648 27.7578 22.125 27.9453 21.7969C28.1562 21.4453 28.3438 21.1055 28.5078 20.7773C28.9062 20.0977 29.2227 19.5234 29.457 19.0547C29.7148 18.5625 29.8438 18.1523 29.8438 17.8242C29.8438 17.6133 29.7969 17.4258 29.7031 17.2617C29.6094 17.0977 29.457 17.0156 29.2461 17.0156C29.1055 17.0156 29 17.0273 28.9297 17.0508C28.8828 17.0508 28.8242 17.0508 28.7539 17.0508C28.707 17.0508 28.625 17.0625 28.5078 17.0859C28.4141 17.0859 28.2617 17.0859 28.0508 17.0859C27.7461 17.0859 27.4883 17.0391 27.2773 16.9453C27.0664 16.8516 26.8672 16.7812 26.6797 16.7344C26.5859 16.8984 26.375 17.25 26.0469 17.7891C25.7188 18.3281 25.332 18.9609 24.8867 19.6875C24.4648 20.4141 24.0078 21.1758 23.5156 21.9727C23.0469 22.7695 22.6016 23.5195 22.1797 24.2227C21.7578 24.9023 21.4062 25.4883 21.125 25.9805C20.8203 26.4492 20.6328 26.7305 20.5625 26.8242ZM54.5586 20.0039C54.2305 20.4727 53.8086 21.0586 53.293 21.7617C52.7773 22.4414 52.2383 23.1328 51.6758 23.8359C51.1367 24.5156 50.5977 25.1484 50.0586 25.7344C49.543 26.2969 49.1094 26.6953 48.7578 26.9297C48.5234 27.0703 48.2539 27.1875 47.9492 27.2812C47.6445 27.375 47.3281 27.4336 47 27.457C46.6953 27.4805 46.4023 27.457 46.1211 27.3867C45.8398 27.3398 45.5938 27.2461 45.3828 27.1055C45.1719 26.9414 44.9961 26.707 44.8555 26.4023C44.7383 26.1445 44.6211 25.8047 44.5039 25.3828C44.4102 24.9609 44.375 24.4336 44.3984 23.8008C43.8359 24.7383 43.2148 25.4648 42.5352 25.9805C41.8555 26.4727 41.2109 26.8359 40.6016 27.0703C39.8984 27.3281 39.1953 27.4805 38.4922 27.5273C38.1641 27.5273 37.8125 27.4102 37.4375 27.1758C37.0625 26.9648 36.7461 26.625 36.4883 26.1562C36.2305 25.6641 36.0664 25.043 35.9961 24.293C35.9258 23.5195 36.0195 22.6055 36.2773 21.5508C36.6055 20.1211 37.1211 18.8203 37.8242 17.6484C38.5508 16.4766 39.3359 15.4805 40.1797 14.6602C41.0234 13.8164 41.8555 13.1836 42.6758 12.7617C43.4961 12.3398 44.1758 12.1523 44.7148 12.1992C45.3477 12.3164 45.8633 12.5039 46.2617 12.7617C46.5898 12.9961 46.8008 13.3477 46.8945 13.8164C47.0117 14.2617 46.8242 14.8594 46.332 15.6094C46.6602 15.5391 46.9297 15.4922 47.1406 15.4688C47.375 15.4453 47.5508 15.4336 47.668 15.4336C47.8086 15.4336 47.9023 15.4453 47.9492 15.4688C47.9727 15.5156 47.9844 15.6211 47.9844 15.7852C47.9844 15.9258 47.9492 16.1953 47.8789 16.5938C47.8086 16.9922 47.7031 17.5312 47.5625 18.2109C47.4219 18.8906 47.2344 19.7695 47 20.8477C46.9531 21.0586 46.9062 21.2578 46.8594 21.4453C46.8359 21.6094 46.8008 21.7852 46.7539 21.9727C46.7305 22.1367 46.6953 22.3359 46.6484 22.5703C46.6016 22.8047 46.543 23.0977 46.4727 23.4492C46.4492 23.6602 46.4375 23.8945 46.4375 24.1523C46.4609 24.3867 46.5078 24.6094 46.5781 24.8203C46.6484 25.0312 46.7539 25.207 46.8945 25.3477C47.0586 25.4648 47.2812 25.5234 47.5625 25.5234C47.7969 25.5234 48.1016 25.3828 48.4766 25.1016C48.8516 24.7969 49.25 24.4219 49.6719 23.9766C50.0938 23.5078 50.5273 23.0039 50.9727 22.4648C51.4414 21.9023 51.875 21.3633 52.2734 20.8477C52.6719 20.332 53.0234 19.875 53.3281 19.4766C53.6562 19.0781 53.8906 18.7852 54.0312 18.5977C54.2188 18.3867 54.4062 18.2695 54.5938 18.2461C54.7812 18.1992 54.9219 18.2461 55.0156 18.3867C55.1094 18.5273 55.1211 18.7383 55.0508 19.0195C55.0039 19.3008 54.8398 19.6289 54.5586 20.0039ZM44.2578 21.5508C44.375 21.082 44.5156 20.5312 44.6797 19.8984C44.8438 19.2656 44.9844 18.6562 45.1016 18.0703C45.2188 17.4844 45.3008 17.0039 45.3477 16.6289C45.418 16.2305 45.4062 16.043 45.3125 16.0664C45.1953 16.0898 45.0664 16.125 44.9258 16.1719C44.8086 16.2188 44.6562 16.2539 44.4688 16.2773C44.2812 16.3008 44.0938 16.3359 43.9062 16.3828C44.0938 16.0078 44.1992 15.7031 44.2227 15.4688C44.2695 15.2109 44.2812 15.0117 44.2578 14.8711C44.2344 14.707 44.1875 14.5781 44.1172 14.4844C43.8594 14.2734 43.4023 14.4492 42.7461 15.0117C42.1133 15.5508 41.375 16.5586 40.5312 18.0352C40.1797 18.6445 39.8984 19.3008 39.6875 20.0039C39.4766 20.6836 39.3242 21.3281 39.2305 21.9375C39.1602 22.5469 39.1484 23.0859 39.1953 23.5547C39.2422 24 39.3359 24.293 39.4766 24.4336C39.7344 24.6914 40.0273 24.8203 40.3555 24.8203C40.6836 24.7969 41.0117 24.7031 41.3398 24.5391C41.6914 24.3516 42.0312 24.1172 42.3594 23.8359C42.7109 23.5547 43.0156 23.2617 43.2734 22.957C43.5547 22.6523 43.7773 22.3711 43.9414 22.1133C44.1289 21.8555 44.2344 21.668 44.2578 21.5508ZM63.3828 20.2852C63.2656 21.0117 63.1484 21.7031 63.0312 22.3594C62.9375 23.0156 62.8789 23.543 62.8555 23.9414C62.832 24.5273 62.9375 24.9492 63.1719 25.207C63.4062 25.4648 63.6641 25.5938 63.9453 25.5938C64.2734 25.5938 64.6719 25.4297 65.1406 25.1016C65.6328 24.7734 66.1484 24.3633 66.6875 23.8711C67.2266 23.3789 67.7656 22.8398 68.3047 22.2539C68.8438 21.668 69.3359 21.1172 69.7812 20.6016C70.25 20.0625 70.6367 19.5938 70.9414 19.1953C71.2695 18.7969 71.4922 18.5391 71.6094 18.4219C71.75 18.2812 71.8906 18.1992 72.0312 18.1758C72.1953 18.1523 72.3242 18.1758 72.418 18.2461C72.5117 18.3164 72.5586 18.4453 72.5586 18.6328C72.5586 18.8203 72.4648 19.0547 72.2773 19.3359C71.9961 19.7812 71.6328 20.3086 71.1875 20.918C70.7422 21.5039 70.25 22.1133 69.7109 22.7461C69.1719 23.3789 68.5977 24 67.9883 24.6094C67.4023 25.2188 66.8047 25.7578 66.1953 26.2266C65.6094 26.6953 65.0352 27.0703 64.4727 27.3516C63.9336 27.6562 63.4414 27.8086 62.9961 27.8086C62.668 27.8086 62.3516 27.7148 62.0469 27.5273C61.7656 27.3398 61.5078 27.0938 61.2734 26.7891C61.0391 26.4844 60.8516 26.1445 60.7109 25.7695C60.5938 25.3945 60.5469 25.0195 60.5703 24.6445C60.5938 24.4805 60.6289 24.1992 60.6758 23.8008C59.6914 24.9023 58.6953 25.7812 57.6875 26.4375C56.7031 27.0703 55.7539 27.3867 54.8398 27.3867C54.5117 27.3867 54.1602 27.3047 53.7852 27.1406C53.4102 26.9766 53.0703 26.707 52.7656 26.332C52.4844 25.957 52.25 25.4648 52.0625 24.8555C51.875 24.2461 51.8047 23.5078 51.8516 22.6406C51.9219 21.2812 52.1914 19.9922 52.6602 18.7734C53.1289 17.5547 53.7148 16.5 54.418 15.6094C55.1445 14.6953 55.9531 13.9805 56.8438 13.4648C57.7578 12.9258 58.6719 12.6562 59.5859 12.6562C59.9844 12.6562 60.3477 12.7617 60.6758 12.9727C61.0039 13.1602 61.2852 13.418 61.5195 13.7461C61.7539 14.0508 61.9414 14.3906 62.082 14.7656C62.2461 15.1406 62.3633 15.4922 62.4336 15.8203C62.5977 15.1406 62.75 14.4727 62.8906 13.8164C63.0312 13.1602 63.1719 12.5391 63.3125 11.9531C63.5469 11.0859 63.793 10.1484 64.0508 9.14062C64.2852 8.27344 64.5547 7.27734 64.8594 6.15234C65.1641 5.02734 65.5039 3.84375 65.8789 2.60156C66.1133 2.41406 66.3359 2.27344 66.5469 2.17969C66.7578 2.08594 66.957 2.01563 67.1445 1.96875C67.3555 1.89844 67.5547 1.86328 67.7422 1.86328C67.9766 1.86328 68.1875 1.89844 68.375 1.96875C68.5625 2.01563 68.7148 2.16797 68.832 2.42578C68.9727 2.66016 69.0664 3.02344 69.1133 3.51562C69.1602 4.00781 69.1602 4.67578 69.1133 5.51953C69.0664 6.55078 68.8789 7.67578 68.5508 8.89453C68.2461 10.1133 67.8359 11.3789 67.3203 12.6914C66.8047 13.9805 66.207 15.2812 65.5273 16.5938C64.8711 17.8828 64.1562 19.1133 63.3828 20.2852ZM61.3086 20.7422C61.4023 20.2969 61.4844 19.8516 61.5547 19.4062C61.6484 18.9609 61.7539 18.5039 61.8711 18.0352C61.8242 18.0586 61.7773 18.082 61.7305 18.1055C61.707 18.1289 61.6719 18.1523 61.625 18.1758C61.3672 18.293 61.1914 18.293 61.0977 18.1758C61.0039 18.0352 60.957 17.8242 60.957 17.543C60.957 17.4023 60.9453 17.1562 60.9219 16.8047C60.8984 16.4297 60.8281 16.0547 60.7109 15.6797C60.6172 15.2812 60.4648 14.9414 60.2539 14.6602C60.043 14.3555 59.75 14.2031 59.375 14.2031C58.8359 14.2031 58.2852 14.4844 57.7227 15.0469C57.1602 15.5859 56.6328 16.2539 56.1406 17.0508C55.6484 17.8242 55.2383 18.6562 54.9102 19.5469C54.582 20.4375 54.3945 21.2344 54.3477 21.9375C54.3008 23.0625 54.4414 23.8711 54.7695 24.3633C55.0977 24.8555 55.543 25.1016 56.1055 25.1016C56.5273 25.1016 56.9844 24.9375 57.4766 24.6094C57.9922 24.2812 58.4844 23.8828 58.9531 23.4141C59.4453 22.9453 59.8906 22.4648 60.2891 21.9727C60.7109 21.4805 61.0508 21.0703 61.3086 20.7422ZM85.5312 19.6875C84.8281 20.7188 84.0312 21.7266 83.1406 22.7109C82.25 23.6719 81.3008 24.5391 80.293 25.3125C79.3086 26.0625 78.2891 26.6719 77.2344 27.1406C76.2031 27.6094 75.1953 27.8438 74.2109 27.8438C73.6953 27.8438 73.1328 27.7148 72.5234 27.457C71.9375 27.2227 71.3984 26.8477 70.9062 26.332C70.4141 25.8164 70.0156 25.1484 69.7109 24.3281C69.4297 23.5078 69.3477 22.5117 69.4648 21.3398C69.5586 20.3789 69.8516 19.3711 70.3438 18.3164C70.8594 17.2383 71.4805 16.2539 72.207 15.3633C72.957 14.4727 73.7891 13.7344 74.7031 13.1484C75.6406 12.5625 76.5781 12.2695 77.5156 12.2695C78.4062 12.2695 79.0508 12.4922 79.4492 12.9375C79.8477 13.3828 80.0234 13.9336 79.9766 14.5898C79.9062 15.3164 79.6953 15.9844 79.3438 16.5938C79.0156 17.2031 78.6172 17.7539 78.1484 18.2461C77.6797 18.7383 77.1758 19.1836 76.6367 19.582C76.1211 19.9805 75.6289 20.3438 75.1602 20.6719C74.6445 21.0234 74.1523 21.3633 73.6836 21.6914C73.2148 21.9961 72.8047 22.2773 72.4531 22.5352C72.4766 23.1211 72.582 23.6133 72.7695 24.0117C72.957 24.4102 73.1914 24.7383 73.4727 24.9961C73.7539 25.2305 74.0703 25.4062 74.4219 25.5234C74.7969 25.6172 75.1719 25.6641 75.5469 25.6641C76.3438 25.6641 77.1758 25.418 78.043 24.9258C78.9102 24.4102 79.7539 23.8008 80.5742 23.0977C81.418 22.3711 82.1914 21.6211 82.8945 20.8477C83.6211 20.0742 84.2188 19.4062 84.6875 18.8438C84.8516 18.6562 85.0156 18.5508 85.1797 18.5273C85.3672 18.4805 85.5078 18.5039 85.6016 18.5977C85.7188 18.668 85.7773 18.8086 85.7773 19.0195C85.7773 19.207 85.6953 19.4297 85.5312 19.6875ZM76.5312 14.2734C76.25 14.2734 75.9102 14.4141 75.5117 14.6953C75.1367 14.9766 74.7617 15.3867 74.3867 15.9258C74.0117 16.4414 73.6602 17.0859 73.332 17.8594C73.0039 18.6094 72.7578 19.4766 72.5938 20.4609C72.875 20.25 73.1797 20.0391 73.5078 19.8281C73.8359 19.5938 74.1641 19.3477 74.4922 19.0898C75.5 18.3164 76.2031 17.6367 76.6016 17.0508C77 16.4648 77.2227 15.9609 77.2695 15.5391C77.3164 15.0938 77.2695 14.7773 77.1289 14.5898C76.9883 14.3789 76.7891 14.2734 76.5312 14.2734ZM98.9258 19.6875C98.2227 20.7188 97.4258 21.7266 96.5352 22.7109C95.6445 23.6719 94.6953 24.5391 93.6875 25.3125C92.7031 26.0625 91.6836 26.6719 90.6289 27.1406C89.5977 27.6094 88.5898 27.8438 87.6055 27.8438C87.0898 27.8438 86.5273 27.7148 85.918 27.457C85.332 27.2227 84.793 26.8477 84.3008 26.332C83.8086 25.8164 83.4102 25.1484 83.1055 24.3281C82.8242 23.5078 82.7422 22.5117 82.8594 21.3398C82.9531 20.3789 83.2461 19.3711 83.7383 18.3164C84.2539 17.2383 84.875 16.2539 85.6016 15.3633C86.3516 14.4727 87.1836 13.7344 88.0977 13.1484C89.0352 12.5625 89.9727 12.2695 90.9102 12.2695C91.8008 12.2695 92.4453 12.4922 92.8438 12.9375C93.2422 13.3828 93.418 13.9336 93.3711 14.5898C93.3008 15.3164 93.0898 15.9844 92.7383 16.5938C92.4102 17.2031 92.0117 17.7539 91.543 18.2461C91.0742 18.7383 90.5703 19.1836 90.0312 19.582C89.5156 19.9805 89.0234 20.3438 88.5547 20.6719C88.0391 21.0234 87.5469 21.3633 87.0781 21.6914C86.6094 21.9961 86.1992 22.2773 85.8477 22.5352C85.8711 23.1211 85.9766 23.6133 86.1641 24.0117C86.3516 24.4102 86.5859 24.7383 86.8672 24.9961C87.1484 25.2305 87.4648 25.4062 87.8164 25.5234C88.1914 25.6172 88.5664 25.6641 88.9414 25.6641C89.7383 25.6641 90.5703 25.418 91.4375 24.9258C92.3047 24.4102 93.1484 23.8008 93.9688 23.0977C94.8125 22.3711 95.5859 21.6211 96.2891 20.8477C97.0156 20.0742 97.6133 19.4062 98.082 18.8438C98.2461 18.6562 98.4102 18.5508 98.5742 18.5273C98.7617 18.4805 98.9023 18.5039 98.9961 18.5977C99.1133 18.668 99.1719 18.8086 99.1719 19.0195C99.1719 19.207 99.0898 19.4297 98.9258 19.6875ZM89.9258 14.2734C89.6445 14.2734 89.3047 14.4141 88.9062 14.6953C88.5312 14.9766 88.1562 15.3867 87.7812 15.9258C87.4062 16.4414 87.0547 17.0859 86.7266 17.8594C86.3984 18.6094 86.1523 19.4766 85.9883 20.4609C86.2695 20.25 86.5742 20.0391 86.9023 19.8281C87.2305 19.5938 87.5586 19.3477 87.8867 19.0898C88.8945 18.3164 89.5977 17.6367 89.9961 17.0508C90.3945 16.4648 90.6172 15.9609 90.6641 15.5391C90.7109 15.0938 90.6641 14.7773 90.5234 14.5898C90.3828 14.3789 90.1836 14.2734 89.9258 14.2734ZM93.8633 42.0117C93.6992 41.9414 93.5352 41.8359 93.3711 41.6953C93.2305 41.5781 93.0898 41.4258 92.9492 41.2383C92.8086 41.0742 92.6914 40.8633 92.5977 40.6055C93.2539 38.0977 93.8164 35.918 94.2852 34.0664C94.7305 32.2148 95.1172 30.668 95.4453 29.4258C95.7969 27.9727 96.1016 26.7539 96.3594 25.7695C96.5938 24.832 96.8281 23.8945 97.0625 22.957C97.25 22.1367 97.4492 21.2578 97.6602 20.3203C97.8945 19.3828 98.1055 18.5039 98.293 17.6836C98.5273 16.7695 98.668 16.043 98.7148 15.5039C98.7617 14.9414 98.5859 14.4609 98.1875 14.0625C98.4688 13.8281 98.75 13.6523 99.0312 13.5352C99.3359 13.3945 99.6055 13.3008 99.8398 13.2539C100.098 13.1836 100.355 13.1602 100.613 13.1836C101.246 13.2305 101.633 13.4297 101.773 13.7812C101.938 14.1328 101.961 14.6953 101.844 15.4688C101.82 15.5859 101.797 15.6914 101.773 15.7852C101.773 15.8555 101.773 15.9375 101.773 16.0312C102.102 15.6562 102.465 15.293 102.863 14.9414C103.262 14.5898 103.66 14.2734 104.059 13.9922C104.48 13.7109 104.902 13.4883 105.324 13.3242C105.77 13.1367 106.191 13.043 106.59 13.043C107.129 13.043 107.562 13.1836 107.891 13.4648C108.242 13.7227 108.512 14.0742 108.699 14.5195C108.887 14.9648 109.004 15.4688 109.051 16.0312C109.098 16.5703 109.109 17.1094 109.086 17.6484C109.062 18.2344 108.957 18.8555 108.77 19.5117C108.605 20.168 108.371 20.8359 108.066 21.5156C107.762 22.1953 107.41 22.8633 107.012 23.5195C106.613 24.1758 106.191 24.7852 105.746 25.3477C105.84 25.3711 105.898 25.3945 105.922 25.418C105.945 25.418 105.957 25.4297 105.957 25.4531C105.957 25.4531 105.969 25.4648 105.992 25.4883C106.039 25.4883 106.121 25.4883 106.238 25.4883C106.777 25.4883 107.328 25.3477 107.891 25.0664C108.453 24.7852 109.004 24.4336 109.543 24.0117C110.082 23.5664 110.598 23.0859 111.09 22.5703C111.605 22.0547 112.062 21.5625 112.461 21.0938C112.883 20.6016 113.234 20.168 113.516 19.793C113.797 19.3945 114.008 19.1133 114.148 18.9492C114.336 18.7148 114.512 18.5625 114.676 18.4922C114.84 18.3984 114.969 18.3867 115.062 18.457C115.156 18.5273 115.203 18.668 115.203 18.8789C115.203 19.0664 115.133 19.3125 114.992 19.6172C114.898 19.8281 114.699 20.168 114.395 20.6367C114.09 21.1055 113.715 21.6328 113.27 22.2188C112.824 22.8047 112.309 23.4141 111.723 24.0469C111.16 24.6797 110.562 25.2539 109.93 25.7695C109.297 26.2852 108.641 26.707 107.961 27.0352C107.305 27.3867 106.66 27.5625 106.027 27.5625C105.723 27.5625 105.477 27.5508 105.289 27.5273C105.102 27.5039 104.938 27.457 104.797 27.3867C104.68 27.3398 104.562 27.2812 104.445 27.2109C104.328 27.1641 104.188 27.1055 104.023 27.0352C103.602 27.3633 103.168 27.6094 102.723 27.7734C102.277 27.9609 101.844 28.0547 101.422 28.0547C101.023 28.0547 100.672 27.9844 100.367 27.8438C100.086 27.7266 99.8516 27.5508 99.6641 27.3164C99.4766 27.1055 99.3242 26.8711 99.207 26.6133C99.0898 26.332 98.9961 26.0625 98.9258 25.8047C98.9023 25.8984 98.8789 25.9805 98.8555 26.0508C98.8555 26.1211 98.8438 26.2148 98.8203 26.332C98.5391 27.457 98.2461 28.7578 97.9414 30.2344C97.6836 31.5 97.3672 33.0352 96.9922 34.8398C96.6406 36.668 96.2656 38.7422 95.8672 41.0625C95.7266 41.6953 95.4805 42.0586 95.1289 42.1523C94.7539 42.2461 94.332 42.1992 93.8633 42.0117ZM100.297 20.2148C100.18 20.6133 100.051 21.082 99.9102 21.6211C99.793 22.1367 99.6523 22.7578 99.4883 23.4844C99.6758 23.3438 99.8867 23.2383 100.121 23.168C100.355 23.0977 100.59 23.0625 100.824 23.0625C101.082 23.0625 101.41 23.2031 101.809 23.4844C102.207 23.7422 102.688 24.0234 103.25 24.3281C103.602 23.9062 103.965 23.4375 104.34 22.9219C104.738 22.3828 105.09 21.832 105.395 21.2695C105.723 20.707 105.992 20.1328 106.203 19.5469C106.438 18.9609 106.566 18.3984 106.59 17.8594C106.637 17.1562 106.555 16.6055 106.344 16.207C106.133 15.8086 105.781 15.6094 105.289 15.6094C104.562 15.6094 103.766 16.043 102.898 16.9102C102.055 17.7539 101.188 18.8555 100.297 20.2148ZM130.672 20.0039C130.133 20.8945 129.512 21.8203 128.809 22.7812C128.129 23.7188 127.402 24.5859 126.629 25.3828C125.855 26.1562 125.059 26.8008 124.238 27.3164C123.418 27.832 122.598 28.0898 121.777 28.0898C120.957 28.0898 120.359 27.8086 119.984 27.2461C119.633 26.707 119.469 26.0977 119.492 25.418C119.492 25.1133 119.516 24.8438 119.562 24.6094C119.633 24.375 119.703 24.1641 119.773 23.9766C119.844 23.7891 119.914 23.6016 119.984 23.4141C120.078 23.2031 120.16 22.9688 120.23 22.7109C120.324 22.4062 120.324 22.1367 120.23 21.9023C120.16 21.6445 120.066 21.4219 119.949 21.2344C119.738 21.4688 119.492 21.6797 119.211 21.8672C118.953 22.0312 118.625 22.1133 118.227 22.1133C117.945 22.1133 117.688 21.9844 117.453 21.7266C117.219 21.4453 117.102 21.1055 117.102 20.707C117.102 20.3789 117.172 20.1094 117.312 19.8984C117.477 19.6875 117.652 19.5234 117.84 19.4062C118.051 19.2891 118.262 19.207 118.473 19.1602C118.684 19.1133 118.859 19.0898 119 19.0898C119.07 19.0898 119.211 19.1016 119.422 19.125C119.656 19.1484 119.902 19.1836 120.16 19.2305C121.004 18.5508 121.602 17.9414 121.953 17.4023C122.328 16.8398 122.363 16.3359 122.059 15.8906C121.871 15.5859 121.637 15.4336 121.355 15.4336C121.074 15.4102 120.781 15.4805 120.477 15.6445C120.172 15.7852 119.867 15.9727 119.562 16.207C119.281 16.4414 119.023 16.6641 118.789 16.875C118.32 17.3438 117.793 17.9062 117.207 18.5625C116.645 19.1953 116.176 19.7227 115.801 20.1445C115.637 20.8477 115.473 21.5859 115.309 22.3594C115.168 23.0391 115.004 23.8125 114.816 24.6797C114.652 25.5234 114.477 26.4023 114.289 27.3164C114.148 27.3867 113.996 27.4336 113.832 27.457C113.691 27.5039 113.562 27.5391 113.445 27.5625C113.305 27.5859 113.164 27.5977 113.023 27.5977C112.836 27.5977 112.66 27.5859 112.496 27.5625C112.332 27.5625 112.203 27.5039 112.109 27.3867C111.992 27.293 111.934 27.1289 111.934 26.8945C111.91 26.6602 111.969 26.332 112.109 25.9102C112.297 25.3008 112.531 24.4922 112.812 23.4844C113.094 22.4531 113.387 21.3281 113.691 20.1094C113.996 18.8906 114.301 17.625 114.605 16.3125C114.934 14.9766 115.238 13.7109 115.52 12.5156C115.801 11.2969 116.035 10.207 116.223 9.24609C116.434 8.26172 116.586 7.48828 116.68 6.92578C116.75 6.31641 116.82 5.73047 116.891 5.16797C116.938 4.69922 116.961 4.24219 116.961 3.79688C116.984 3.32812 116.961 2.97656 116.891 2.74219C117.008 2.625 117.172 2.51953 117.383 2.42578C117.594 2.33203 117.828 2.26172 118.086 2.21484C118.344 2.14453 118.648 2.08594 119 2.03906C119.398 1.99219 119.727 1.98047 119.984 2.00391C120.266 2.02734 120.465 2.14453 120.582 2.35547C120.723 2.58984 120.746 2.98828 120.652 3.55078C120.582 4.08984 120.418 4.85156 120.16 5.83594C119.832 7.10156 119.492 8.26172 119.141 9.31641C118.812 10.3477 118.484 11.3203 118.156 12.2344C117.852 13.1484 117.547 14.0391 117.242 14.9062C116.961 15.75 116.703 16.6172 116.469 17.5078C116.938 16.8281 117.523 16.1133 118.227 15.3633C118.93 14.5898 119.727 13.957 120.617 13.4648C121.555 12.9727 122.328 12.7266 122.938 12.7266C123.688 12.7266 124.227 12.9844 124.555 13.5C124.883 13.9922 125.035 14.5781 125.012 15.2578C124.988 15.7969 124.848 16.3008 124.59 16.7695C124.355 17.2148 124.062 17.6367 123.711 18.0352C123.359 18.4102 122.984 18.7383 122.586 19.0195C122.188 19.3008 121.848 19.5352 121.566 19.7227C121.895 19.9102 122.176 20.168 122.41 20.4961C122.668 20.8008 122.785 21.1875 122.762 21.6562C122.738 22.2891 122.609 22.8516 122.375 23.3438C122.164 23.8125 122.059 24.2461 122.059 24.6445C122.082 24.9492 122.141 25.1719 122.234 25.3125C122.352 25.4531 122.586 25.5234 122.938 25.5234C123.57 25.5234 124.227 25.2539 124.906 24.7148C125.609 24.1758 126.266 23.5547 126.875 22.8516C127.484 22.1484 128.047 21.457 128.562 20.7773C129.078 20.0742 129.477 19.5586 129.758 19.2305C130.156 18.8086 130.484 18.7031 130.742 18.9141C131.023 19.1016 131 19.4648 130.672 20.0039ZM132.852 27.5625C131.961 27.5625 131.234 27.4219 130.672 27.1406C130.109 26.8594 129.664 26.5195 129.336 26.1211C129.031 25.6992 128.809 25.2539 128.668 24.7852C128.551 24.293 128.492 23.8477 128.492 23.4492C128.492 22.7461 128.551 22.0078 128.668 21.2344C128.785 20.4375 128.926 19.7109 129.09 19.0547C129.254 18.375 129.395 17.8008 129.512 17.332C129.652 16.8633 129.746 16.5703 129.793 16.4531C130.004 15.7734 130.273 15.1875 130.602 14.6953C130.953 14.1797 131.434 13.8281 132.043 13.6406C132.277 13.5938 132.523 13.5469 132.781 13.5C132.992 13.4766 133.203 13.4648 133.414 13.4648C133.648 13.4648 133.859 13.5 134.047 13.5703C133.414 15.1875 132.91 16.5352 132.535 17.6133C132.184 18.6914 131.914 19.5703 131.727 20.25C131.516 21.0234 131.387 21.6445 131.34 22.1133C131.223 23.168 131.316 23.9648 131.621 24.5039C131.926 25.043 132.547 25.3125 133.484 25.3125C134.094 25.3125 134.68 25.0898 135.242 24.6445C135.805 24.1758 136.32 23.5781 136.789 22.8516C136.719 22.4766 136.684 22.0898 136.684 21.6914C136.684 20.9414 136.742 20.2148 136.859 19.5117C137 18.7852 137.152 18.1172 137.316 17.5078C137.504 16.875 137.691 16.3125 137.879 15.8203C138.09 15.3281 138.266 14.9414 138.406 14.6602C138.664 14.0977 138.898 13.7578 139.109 13.6406C139.32 13.5 139.66 13.418 140.129 13.3945C140.316 13.3711 140.469 13.3711 140.586 13.3945C140.727 13.3945 140.844 13.4062 140.938 13.4297C141.219 13.5 141.359 13.6406 141.359 13.8516C141.359 14.2266 141.336 14.7891 141.289 15.5391C141.242 16.2891 141.102 17.0625 140.867 17.8594C140.703 18.5156 140.539 19.0781 140.375 19.5469C140.234 19.9922 140.094 20.3789 139.953 20.707C139.812 21.0117 139.672 21.2695 139.531 21.4805C139.391 21.668 139.262 21.8438 139.145 22.0078C139.191 22.7109 139.25 23.2734 139.32 23.6953C139.391 24.1172 139.473 24.4453 139.566 24.6797C139.684 24.8906 139.812 25.043 139.953 25.1367C140.117 25.207 140.293 25.2422 140.48 25.2422C140.809 25.2422 141.195 25.0898 141.641 24.7852C142.086 24.457 142.543 24.0586 143.012 23.5898C143.504 23.0977 143.984 22.5703 144.453 22.0078C144.945 21.4219 145.391 20.8711 145.789 20.3555C146.188 19.8398 146.527 19.3945 146.809 19.0195C147.09 18.6211 147.266 18.375 147.336 18.2812C147.5 18.0703 147.652 17.9414 147.793 17.8945C147.957 17.8477 148.086 17.8711 148.18 17.9648C148.273 18.0352 148.32 18.1641 148.32 18.3516C148.344 18.5156 148.297 18.7031 148.18 18.9141C147.711 19.8047 147.125 20.7539 146.422 21.7617C145.742 22.7461 145.004 23.6602 144.207 24.5039C143.434 25.3477 142.648 26.0508 141.852 26.6133C141.055 27.1758 140.305 27.457 139.602 27.457C138.969 27.457 138.465 27.2461 138.09 26.8242C137.738 26.3789 137.434 25.7461 137.176 24.9258C136.637 25.7695 136.004 26.4258 135.277 26.8945C134.551 27.3398 133.742 27.5625 132.852 27.5625ZM161.75 25.3828C161.75 24.8906 161.797 24.3281 161.891 23.6953C162.008 23.0625 162.148 22.418 162.312 21.7617C162.477 21.082 162.641 20.4258 162.805 19.793C162.969 19.1602 163.109 18.5977 163.227 18.1055C163.367 17.4961 163.355 17.0273 163.191 16.6992C163.027 16.3711 162.746 16.207 162.348 16.207C162.16 16.207 161.785 16.3711 161.223 16.6992C160.684 17.0273 160.086 17.6016 159.43 18.4219C158.797 19.2188 158.164 20.3086 157.531 21.6914C156.922 23.0508 156.441 24.7852 156.09 26.8945C155.645 27.1289 155.223 27.2812 154.824 27.3516C154.613 27.3984 154.426 27.4336 154.262 27.457C153.793 27.4805 153.488 27.3984 153.348 27.2109C153.207 27.0469 153.23 26.625 153.418 25.9453C153.512 25.6172 153.676 25.0898 153.91 24.3633C154.168 23.6367 154.414 22.8516 154.648 22.0078C154.883 21.1406 155.082 20.2852 155.246 19.4414C155.434 18.5742 155.527 17.8242 155.527 17.1914C155.527 16.7461 155.445 16.4414 155.281 16.2773C155.141 16.1133 154.93 16.0312 154.648 16.0312C154.438 16.0312 154.086 16.1484 153.594 16.3828C153.102 16.6172 152.551 17.0742 151.941 17.7539C151.332 18.4336 150.723 19.3828 150.113 20.6016C149.527 21.7969 149.023 23.3555 148.602 25.2773V25.207C148.555 25.3945 148.508 25.582 148.461 25.7695C148.414 25.9336 148.379 26.1094 148.355 26.2969C148.332 26.4844 148.297 26.6602 148.25 26.8242L146.492 27.5977C146.375 27.6445 146.223 27.6797 146.035 27.7031C145.871 27.7266 145.707 27.6914 145.543 27.5977C145.402 27.5273 145.297 27.3633 145.227 27.1055C145.156 26.8477 145.18 26.4609 145.297 25.9453L147.512 16.7695C147.582 16.4648 147.641 16.1719 147.688 15.8906C147.734 15.6328 147.758 15.3867 147.758 15.1523C147.781 14.8945 147.77 14.6836 147.723 14.5195C148.121 14.332 148.473 14.1914 148.777 14.0977C149.082 14.0039 149.328 13.9336 149.516 13.8867C149.75 13.8164 149.949 13.7812 150.113 13.7812C150.863 13.7812 151.109 14.4258 150.852 15.7148C150.758 16.0898 150.617 16.6406 150.43 17.3672C150.875 16.8047 151.344 16.2773 151.836 15.7852C152.352 15.2695 152.867 14.8125 153.383 14.4141C153.898 14.0156 154.414 13.6992 154.93 13.4648C155.469 13.2305 155.996 13.1133 156.512 13.1133C156.91 13.1133 157.238 13.2305 157.496 13.4648C157.777 13.6992 157.988 14.0156 158.129 14.4141C158.293 14.7891 158.387 15.2461 158.41 15.7852C158.434 16.3008 158.41 16.8398 158.34 17.4023C158.715 16.9102 159.125 16.418 159.57 15.9258C160.039 15.4102 160.52 14.9531 161.012 14.5547C161.527 14.1562 162.055 13.8281 162.594 13.5703C163.133 13.3125 163.672 13.1836 164.211 13.1836C164.844 13.1836 165.324 13.3711 165.652 13.7461C166.004 14.1211 166.238 14.6016 166.355 15.1875C166.496 15.7734 166.531 16.4062 166.461 17.0859C166.414 17.7656 166.32 18.4219 166.18 19.0547L164.984 23.8008C164.727 24.9727 164.973 25.5586 165.723 25.5586C166.309 25.5586 166.953 25.2773 167.656 24.7148C168.359 24.1523 169.039 23.4844 169.695 22.7109C170.375 21.9375 171.008 21.1406 171.594 20.3203C172.18 19.5 172.672 18.8438 173.07 18.3516C173.211 18.1875 173.352 18.0938 173.492 18.0703C173.656 18.0469 173.785 18.082 173.879 18.1758C173.996 18.2461 174.055 18.375 174.055 18.5625C174.078 18.75 174.02 18.9844 173.879 19.2656C173.41 20.0859 172.836 21 172.156 22.0078C171.477 22.9922 170.727 23.918 169.906 24.7852C169.109 25.6523 168.254 26.3789 167.34 26.9648C166.426 27.5508 165.477 27.8438 164.492 27.8438C164.164 27.8438 163.836 27.8086 163.508 27.7383C163.203 27.668 162.91 27.5391 162.629 27.3516C162.371 27.1641 162.16 26.918 161.996 26.6133C161.832 26.2852 161.75 25.875 161.75 25.3828ZM189.242 20.0039C188.914 20.4727 188.492 21.0586 187.977 21.7617C187.461 22.4414 186.922 23.1328 186.359 23.8359C185.82 24.5156 185.281 25.1484 184.742 25.7344C184.227 26.2969 183.793 26.6953 183.441 26.9297C183.207 27.0703 182.938 27.1875 182.633 27.2812C182.328 27.375 182.012 27.4336 181.684 27.457C181.379 27.4805 181.086 27.457 180.805 27.3867C180.523 27.3398 180.277 27.2461 180.066 27.1055C179.855 26.9414 179.68 26.707 179.539 26.4023C179.422 26.1445 179.305 25.8047 179.188 25.3828C179.094 24.9609 179.059 24.4336 179.082 23.8008C178.52 24.7383 177.898 25.4648 177.219 25.9805C176.539 26.4727 175.895 26.8359 175.285 27.0703C174.582 27.3281 173.879 27.4805 173.176 27.5273C172.848 27.5273 172.496 27.4102 172.121 27.1758C171.746 26.9648 171.43 26.625 171.172 26.1562C170.914 25.6641 170.75 25.043 170.68 24.293C170.609 23.5195 170.703 22.6055 170.961 21.5508C171.289 20.1211 171.805 18.8203 172.508 17.6484C173.234 16.4766 174.02 15.4805 174.863 14.6602C175.707 13.8164 176.539 13.1836 177.359 12.7617C178.18 12.3398 178.859 12.1523 179.398 12.1992C180.031 12.3164 180.547 12.5039 180.945 12.7617C181.273 12.9961 181.484 13.3477 181.578 13.8164C181.695 14.2617 181.508 14.8594 181.016 15.6094C181.344 15.5391 181.613 15.4922 181.824 15.4688C182.059 15.4453 182.234 15.4336 182.352 15.4336C182.492 15.4336 182.586 15.4453 182.633 15.4688C182.656 15.5156 182.668 15.6211 182.668 15.7852C182.668 15.9258 182.633 16.1953 182.562 16.5938C182.492 16.9922 182.387 17.5312 182.246 18.2109C182.105 18.8906 181.918 19.7695 181.684 20.8477C181.637 21.0586 181.59 21.2578 181.543 21.4453C181.52 21.6094 181.484 21.7852 181.438 21.9727C181.414 22.1367 181.379 22.3359 181.332 22.5703C181.285 22.8047 181.227 23.0977 181.156 23.4492C181.133 23.6602 181.121 23.8945 181.121 24.1523C181.145 24.3867 181.191 24.6094 181.262 24.8203C181.332 25.0312 181.438 25.207 181.578 25.3477C181.742 25.4648 181.965 25.5234 182.246 25.5234C182.48 25.5234 182.785 25.3828 183.16 25.1016C183.535 24.7969 183.934 24.4219 184.355 23.9766C184.777 23.5078 185.211 23.0039 185.656 22.4648C186.125 21.9023 186.559 21.3633 186.957 20.8477C187.355 20.332 187.707 19.875 188.012 19.4766C188.34 19.0781 188.574 18.7852 188.715 18.5977C188.902 18.3867 189.09 18.2695 189.277 18.2461C189.465 18.1992 189.605 18.2461 189.699 18.3867C189.793 18.5273 189.805 18.7383 189.734 19.0195C189.688 19.3008 189.523 19.6289 189.242 20.0039ZM178.941 21.5508C179.059 21.082 179.199 20.5312 179.363 19.8984C179.527 19.2656 179.668 18.6562 179.785 18.0703C179.902 17.4844 179.984 17.0039 180.031 16.6289C180.102 16.2305 180.09 16.043 179.996 16.0664C179.879 16.0898 179.75 16.125 179.609 16.1719C179.492 16.2188 179.34 16.2539 179.152 16.2773C178.965 16.3008 178.777 16.3359 178.59 16.3828C178.777 16.0078 178.883 15.7031 178.906 15.4688C178.953 15.2109 178.965 15.0117 178.941 14.8711C178.918 14.707 178.871 14.5781 178.801 14.4844C178.543 14.2734 178.086 14.4492 177.43 15.0117C176.797 15.5508 176.059 16.5586 175.215 18.0352C174.863 18.6445 174.582 19.3008 174.371 20.0039C174.16 20.6836 174.008 21.3281 173.914 21.9375C173.844 22.5469 173.832 23.0859 173.879 23.5547C173.926 24 174.02 24.293 174.16 24.4336C174.418 24.6914 174.711 24.8203 175.039 24.8203C175.367 24.7969 175.695 24.7031 176.023 24.5391C176.375 24.3516 176.715 24.1172 177.043 23.8359C177.395 23.5547 177.699 23.2617 177.957 22.957C178.238 22.6523 178.461 22.3711 178.625 22.1133C178.812 21.8555 178.918 21.668 178.941 21.5508ZM185.551 26.8242C185.387 27.082 185.211 27.2461 185.023 27.3164C184.812 27.4102 184.637 27.4219 184.496 27.3516C184.332 27.3047 184.227 27.1875 184.18 27C184.133 26.8125 184.18 26.5781 184.32 26.2969C184.391 26.1562 184.555 25.8398 184.812 25.3477C185.047 24.8555 185.34 24.2695 185.691 23.5898C186.02 22.8867 186.383 22.1367 186.781 21.3398C187.18 20.5195 187.555 19.7461 187.906 19.0195C188.281 18.293 188.621 17.6484 188.926 17.0859C189.23 16.5 189.453 16.0781 189.594 15.8203C189.336 15.5859 189.16 15.4219 189.066 15.3281C188.973 15.2109 188.902 14.9766 188.855 14.625C188.809 14.3203 188.879 13.9219 189.066 13.4297C189.254 12.9375 189.5 12.4688 189.805 12.0234C190.109 11.5547 190.449 11.1562 190.824 10.8281C191.199 10.5 191.562 10.3359 191.914 10.3359C192.57 10.3359 193.027 10.5469 193.285 10.9688C193.566 11.3906 193.73 11.8242 193.777 12.2695C193.824 12.5742 193.801 12.9609 193.707 13.4297C193.613 13.8984 193.438 14.3203 193.18 14.6953C193.25 14.7422 193.344 14.8008 193.461 14.8711C193.578 14.918 193.766 14.9414 194.023 14.9414C194.398 14.9414 194.656 14.918 194.797 14.8711C194.961 14.8242 195.207 14.8008 195.535 14.8008C195.934 14.8008 196.262 14.9062 196.52 15.1172C196.777 15.3047 196.988 15.5508 197.152 15.8555C197.316 16.1367 197.434 16.4531 197.504 16.8047C197.598 17.1328 197.656 17.4375 197.68 17.7188C197.75 18.3047 197.598 18.9141 197.223 19.5469C196.848 20.1797 196.391 20.8711 195.852 21.6211C195.523 22.0898 195.195 22.6172 194.867 23.2031C194.539 23.7891 194.398 24.3164 194.445 24.7852C194.492 25.0898 194.574 25.3359 194.691 25.5234C194.809 25.7109 195.137 25.8047 195.676 25.8047C196.074 25.8047 196.508 25.6641 196.977 25.3828C197.469 25.0781 197.961 24.7031 198.453 24.2578C198.969 23.7891 199.473 23.2852 199.965 22.7461C200.457 22.1836 200.914 21.6445 201.336 21.1289C201.758 20.5898 202.109 20.1094 202.391 19.6875C202.695 19.2656 202.918 18.9609 203.059 18.7734C203.176 18.5859 203.328 18.457 203.516 18.3867C203.703 18.3164 203.867 18.3164 204.008 18.3867C204.148 18.457 204.23 18.5977 204.254 18.8086C204.301 19.0195 204.219 19.3008 204.008 19.6523C203.867 19.8867 203.621 20.2617 203.27 20.7773C202.941 21.293 202.531 21.8672 202.039 22.5C201.57 23.1328 201.043 23.7891 200.457 24.4688C199.871 25.125 199.25 25.7344 198.594 26.2969C197.961 26.8359 197.316 27.2812 196.66 27.6328C196.027 27.9844 195.418 28.1602 194.832 28.1602C194.223 28.1602 193.719 28.043 193.32 27.8086C192.922 27.5742 192.594 27.293 192.336 26.9648C192.102 26.6133 191.926 26.2383 191.809 25.8398C191.715 25.418 191.68 25.0312 191.703 24.6797C191.727 24.3984 191.797 24.1055 191.914 23.8008C192.055 23.4727 192.207 23.1445 192.371 22.8164C192.559 22.4648 192.746 22.125 192.934 21.7969C193.145 21.4453 193.332 21.1055 193.496 20.7773C193.895 20.0977 194.211 19.5234 194.445 19.0547C194.703 18.5625 194.832 18.1523 194.832 17.8242C194.832 17.6133 194.785 17.4258 194.691 17.2617C194.598 17.0977 194.445 17.0156 194.234 17.0156C194.094 17.0156 193.988 17.0273 193.918 17.0508C193.871 17.0508 193.812 17.0508 193.742 17.0508C193.695 17.0508 193.613 17.0625 193.496 17.0859C193.402 17.0859 193.25 17.0859 193.039 17.0859C192.734 17.0859 192.477 17.0391 192.266 16.9453C192.055 16.8516 191.855 16.7812 191.668 16.7344C191.574 16.8984 191.363 17.25 191.035 17.7891C190.707 18.3281 190.32 18.9609 189.875 19.6875C189.453 20.4141 188.996 21.1758 188.504 21.9727C188.035 22.7695 187.59 23.5195 187.168 24.2227C186.746 24.9023 186.395 25.4883 186.113 25.9805C185.809 26.4492 185.621 26.7305 185.551 26.8242Z" fill="white"/>
</svg>
